<?xml version="1.0" standalone="no"?>
<!DOCTYPE svg PUBLIC "-//W3C//DTD SVG 20010904//EN"
 "http://www.w3.org/TR/2001/REC-SVG-20010904/DTD/svg10.dtd">
<svg version="1.0" xmlns="http://www.w3.org/2000/svg"
 width="64.000000pt" height="64.000000pt" viewBox="0 0 64.000000 64.000000"
 preserveAspectRatio="xMidYMid meet">

<g transform="translate(0.000000,64.000000) scale(0.100000,-0.100000)"
fill="#000000" stroke="none">
<path d="M167 496 c-68 -25 -67 -22 -67 -193 0 -168 3 -176 56 -148 36 19 81
19 117 1 l27 -15 0 174 0 174 -37 10 c-47 13 -49 13 -96 -3z"/>
<path d="M373 499 l-33 -10 0 -174 0 -174 28 15 c35 18 76 18 113 -2 57 -29
60 -21 57 153 l-3 157 -30 17 c-40 23 -92 30 -132 18z"/>
</g>
</svg>
