
<svg version="1.0" xmlns="http://www.w3.org/2000/svg"
 width="596.000000pt" height="610.000000pt" viewBox="0 0 596.000000 610.000000"
 preserveAspectRatio="xMidYMid meet">
<style>
    #Img {
        animation: micro-movement 2.5s infinite;

    }

    @keyframes micro-movement {
        0% {
            transform: translate(0, 0);
        }
        50% {
            transform: translate(-2px, 10px);
        }   
        100% {
            transform: translate(0, 0);
        }
    }
</style>
<g id="Img">
    <g transform="translate(0.000000,610.000000) scale(0.100000,-0.100000)"
    fill="#000000" stroke="none">
    <path d="M5144 5940 c-49 -46 -145 -139 -214 -206 -121 -117 -475 -432 -596
    -529 -32 -26 -72 -58 -89 -71 -16 -14 -39 -30 -51 -37 -11 -7 -36 -22 -54 -34
    -19 -12 -66 -30 -105 -38 -111 -26 -145 -46 -266 -159 -129 -119 -170 -147
    -197 -130 -22 14 -28 52 -8 60 8 3 18 19 21 35 4 16 11 29 16 29 5 0 14 10 20
    23 5 12 25 47 44 77 19 30 39 65 44 78 6 12 15 22 21 22 5 0 10 9 10 19 0 11
    4 23 10 26 5 3 9 16 9 28 0 12 7 55 17 95 9 40 14 75 11 78 -18 18 -47 -25
    -147 -223 -212 -415 -195 -388 -311 -503 -74 -74 -130 -120 -190 -155 -100
    -58 -166 -136 -207 -244 -30 -77 -148 -311 -234 -462 -77 -136 -127 -199 -228
    -288 -74 -66 -83 -71 -98 -57 -26 22 -407 175 -530 211 -32 9 -48 53 -61 165
    -16 142 -62 204 -167 228 -42 9 -42 9 -159 -38 -11 -5 -46 -11 -78 -14 l-59
    -6 6 27 c3 16 10 57 15 91 6 35 15 69 20 76 13 15 -16 76 -41 88 -10 4 -26 12
    -35 17 -10 4 -20 19 -22 32 -1 13 -6 26 -10 29 -5 3 -14 19 -22 35 -9 19 -23
    31 -39 33 -14 2 -30 8 -35 12 -7 6 -21 -4 -37 -23 -19 -25 -45 -39 -104 -59
    -120 -39 -146 -41 -186 -11 -46 34 -103 63 -126 63 -11 0 -36 -11 -56 -25 -20
    -14 -39 -25 -41 -25 -10 0 -4 131 11 225 25 164 27 200 14 239 -7 22 -22 42
    -36 48 -52 24 -101 -63 -128 -227 -9 -55 -22 -122 -28 -150 -6 -27 -10 -100
    -9 -161 2 -91 -1 -113 -14 -124 -12 -10 -21 -10 -40 -2 -29 13 -32 42 -9 77
    16 25 16 25 -19 25 -32 0 -35 2 -41 39 -3 21 -13 51 -21 67 -8 16 -15 36 -15
    44 0 28 -31 62 -51 57 -19 -5 -26 7 -10 17 5 3 7 15 4 27 -5 18 -11 20 -41 15
    -62 -10 -74 -41 -57 -146 8 -48 98 -264 121 -291 8 -8 14 -19 14 -24 0 -18 86
    -118 126 -145 23 -16 44 -41 48 -54 3 -14 15 -30 26 -36 11 -6 20 -17 20 -25
    0 -8 16 -32 35 -54 19 -21 35 -43 35 -49 0 -6 11 -17 24 -24 13 -7 45 -27 70
    -45 25 -18 63 -35 83 -39 38 -7 84 -30 133 -64 14 -10 52 -32 84 -50 45 -24
    61 -28 67 -19 5 9 26 -6 71 -53 35 -37 103 -92 153 -123 94 -60 135 -92 135
    -108 0 -5 -44 -55 -98 -111 -111 -114 -148 -165 -197 -269 -54 -113 -81 -333
    -55 -455 9 -40 7 -67 -9 -146 -51 -245 -37 -324 47 -257 21 15 55 38 78 49 22
    11 81 63 130 115 l90 94 95 7 c52 3 149 18 216 32 l123 26 37 -30 c21 -16 63
    -44 94 -61 31 -17 64 -40 74 -51 10 -11 24 -20 32 -20 7 0 13 -4 13 -10 0 -5
    9 -10 19 -10 11 0 33 -11 49 -25 17 -14 33 -25 37 -25 4 0 27 -17 50 -37 91
    -82 146 -128 158 -132 6 -2 17 -9 24 -15 30 -27 42 -35 71 -50 18 -9 32 -21
    32 -26 0 -6 44 -32 98 -58 53 -26 118 -63 144 -82 25 -19 68 -48 95 -64 42
    -25 45 -30 28 -36 -11 -4 -33 -6 -50 -4 -16 2 -88 11 -160 19 -71 9 -145 20
    -163 26 -29 9 -42 7 -90 -15 -95 -42 -169 -57 -302 -60 -127 -3 -239 -25 -261
    -52 -7 -9 -7 -18 1 -33 13 -25 22 -26 62 -5 29 15 32 15 59 -5 31 -23 63 -26
    103 -11 15 5 35 6 48 1 l23 -9 -25 -11 c-14 -5 -43 -15 -65 -20 -77 -20 -161
    -92 -148 -129 7 -19 27 -14 52 12 21 22 29 24 73 19 40 -5 54 -2 77 15 17 12
    37 19 49 15 13 -3 32 3 48 16 15 12 34 21 43 21 10 0 45 18 79 40 95 62 105
    62 187 -5 52 -43 74 -56 93 -52 16 3 34 -4 56 -23 56 -49 106 -65 106 -35 0
    30 30 27 79 -9 50 -37 71 -44 71 -25 0 24 -54 79 -108 107 -31 17 -70 45 -87
    62 l-30 32 60 -7 c101 -10 185 -27 198 -39 43 -40 210 -87 243 -68 39 22 94
    85 94 107 0 22 5 25 33 25 18 0 37 -4 43 -8 26 -22 205 -94 220 -88 15 6 15 9
    -5 29 -30 33 -27 37 23 37 57 0 83 -22 137 -120 23 -41 49 -83 57 -93 9 -10
    25 -33 37 -51 37 -60 109 -162 186 -263 42 -54 98 -139 125 -189 26 -49 60
    -107 76 -130 17 -23 32 -62 37 -92 4 -29 11 -55 15 -59 3 -4 25 11 47 33 l40
    39 -15 -37 c-20 -48 -21 -112 -1 -128 8 -7 15 -24 15 -37 0 -39 23 -22 41 30
    23 68 29 68 29 -1 0 -33 5 -64 10 -67 6 -3 10 -14 10 -23 0 -9 15 -34 34 -54
    41 -45 98 -62 170 -53 56 8 145 42 161 62 6 7 48 17 95 23 97 11 190 52 190
    81 0 10 -4 21 -10 24 -22 13 -8 23 24 18 53 -8 165 16 177 38 17 32 91 59 212
    79 72 11 111 34 104 61 -3 12 0 19 9 19 8 0 27 8 42 18 15 10 36 22 47 28 10
    6 23 26 28 44 11 44 -7 151 -29 167 -15 11 -14 13 10 24 35 16 33 35 -6 60
    -18 12 -24 18 -13 14 28 -9 26 -9 63 5 37 14 36 11 18 53 -14 31 -74 95 -158
    169 -126 110 -126 110 -281 165 -147 52 -224 91 -316 161 -42 32 -184 109
    -261 142 -77 33 -179 93 -241 143 -37 28 -107 83 -155 120 -92 70 -234 204
    -234 219 0 4 -7 8 -15 8 -9 0 -18 7 -21 15 -4 8 -12 15 -19 15 -7 0 -40 27
    -73 60 -34 33 -69 60 -78 60 -15 0 -15 2 2 21 10 12 36 30 57 41 37 18 41 18
    78 4 85 -34 189 -11 268 60 59 53 86 64 157 64 30 0 69 7 87 16 51 25 187 165
    187 191 0 19 5 23 32 23 24 0 40 10 70 42 21 23 38 47 38 54 0 8 24 29 53 47
    66 43 79 59 75 94 -3 24 1 28 32 34 19 4 36 12 38 17 1 5 25 44 53 88 50 79
    55 102 34 156 -9 22 28 58 58 58 13 0 39 15 59 33 41 37 61 110 57 200 -3 41
    0 53 13 55 45 9 92 224 56 260 -9 9 -8 23 6 63 13 35 17 64 12 95 -5 42 -3 48
    27 75 31 29 32 30 12 45 -11 8 -38 19 -60 25 -88 24 -133 40 -151 54 -17 13
    -9 14 71 15 93 0 118 7 114 31 -2 14 13 61 31 91 19 33 11 57 -28 82 -53 33
    -60 45 -64 105 -3 59 -10 66 -70 76 -21 3 -38 10 -38 15 0 16 42 49 119 96 69
    42 82 46 188 59 117 15 177 28 202 44 11 7 11 15 2 42 -10 30 -8 36 24 78 19
    25 42 54 52 64 23 23 27 61 8 77 -20 17 -19 30 4 30 25 0 48 27 34 41 -19 19
    -180 -7 -314 -52 -86 -29 -132 -40 -145 -34 -16 7 -13 9 19 18 25 6 41 17 47
    31 4 13 25 36 46 53 45 36 39 53 -22 53 -28 0 -43 4 -39 10 3 6 15 10 25 10
    10 0 31 11 47 24 16 14 47 26 73 29 94 12 141 25 163 45 13 12 28 22 34 22 12
    0 37 50 34 68 -1 6 10 17 24 24 19 8 25 19 25 42 0 17 4 37 9 45 5 8 7 20 4
    28 -7 18 -87 17 -103 -2 -7 -8 -18 -15 -25 -15 -6 0 -81 -35 -166 -77 -85 -42
    -157 -76 -161 -75 -5 1 -8 -2 -8 -7 0 -5 -17 -12 -37 -16 -21 -3 -70 -24 -110
    -46 -40 -21 -81 -39 -92 -39 -11 0 -23 -4 -26 -10 -9 -15 -19 -12 -44 11 -22
    20 -23 31 -6 72 6 14 2 17 -19 17 -27 0 -35 14 -14 26 7 5 8 3 3 -6 -5 -9 -4
    -11 3 -6 7 4 12 13 12 19 0 7 21 21 46 31 41 17 62 32 127 94 11 10 17 26 14
    38 -4 24 22 43 88 64 55 17 95 42 95 58 0 10 7 12 26 8 22 -6 25 -4 19 14 -3
    11 -2 20 4 20 5 0 16 12 23 27 7 14 22 31 33 37 30 16 35 27 35 74 0 29 -5 44
    -15 48 -12 5 -13 9 -4 21 9 10 9 17 1 25 -15 15 -40 2 -131 -72 -39 -32 -80
    -62 -91 -65 -11 -4 -20 -13 -20 -21 0 -8 -7 -14 -16 -14 -13 0 -43 -26 -92
    -82 -25 -28 -128 -108 -139 -108 -7 0 -13 -7 -13 -15 0 -9 -8 -18 -17 -22 -10
    -4 -36 -18 -58 -33 -41 -27 -193 -110 -201 -110 -3 0 -2 5 1 10 10 15 2 12
    -35 -15 -19 -14 -41 -25 -50 -25 -8 0 -33 -12 -53 -26 -21 -14 -41 -24 -43
    -21 -6 5 28 65 73 128 18 26 33 51 33 58 0 6 6 11 14 11 7 0 24 9 38 19 13 11
    51 30 84 44 81 33 110 59 151 141 42 82 72 126 89 126 6 0 27 17 46 38 19 21
    42 41 50 45 10 3 17 23 20 54 3 26 9 55 12 64 4 9 -1 26 -12 40 l-20 24 -88
    -85z m-199 -389 c3 -5 1 -12 -5 -16 -5 -3 -10 1 -10 9 0 18 6 21 15 7z"/>
    </g>
</g>
</svg>
