<?xml version="1.0" standalone="no"?>
<!DOCTYPE svg PUBLIC "-//W3C//DTD SVG 20010904//EN"
 "http://www.w3.org/TR/2001/REC-SVG-20010904/DTD/svg10.dtd">
<svg version="1.0" xmlns="http://www.w3.org/2000/svg"
 width="48.000000pt" height="48.000000pt" viewBox="0 0 48.000000 48.000000"
 preserveAspectRatio="xMidYMid meet">

<g transform="translate(0.000000,48.000000) scale(0.100000,-0.100000)"
fill="#000000" stroke="none">
<path d="M175 426 c-97 -43 -123 -165 -54 -249 l30 -37 88 0 c78 0 90 2 108
23 75 82 67 186 -19 250 -33 25 -113 32 -153 13z"/>
<path d="M170 97 c0 -7 7 -23 16 -35 21 -31 87 -31 108 0 29 41 21 48 -54 48
-50 0 -70 -4 -70 -13z"/>
</g>
</svg>
