<svg version="1.0" xmlns="http://www.w3.org/2000/svg"
 width="48.000000pt" height="48.000000pt" viewBox="0 0 48.000000 48.000000"
 preserveAspectRatio="xMidYMid meet">

<g transform="translate(0.000000,48.000000) scale(0.100000,-0.100000)"
fill="#333" stroke="none">
<path d="M226 247 c-25 -68 -46 -126 -46 -130 0 -4 6 -7 14 -7 8 0 31 48 60
123 25 68 46 126 46 130 0 4 -6 7 -14 7 -8 0 -31 -48 -60 -123z"/>
<path d="M70 285 l-44 -45 44 -45 c24 -25 48 -45 52 -45 17 0 6 26 -24 57
l-32 33 32 33 c30 31 41 57 24 57 -4 0 -28 -20 -52 -45z"/>
<path d="M350 318 c0 -7 14 -27 32 -45 l32 -33 -32 -33 c-30 -31 -41 -57 -24
-57 4 0 28 20 52 45 l44 45 -44 45 c-45 46 -60 54 -60 33z"/>
</g>
</svg>
