<svg version="1.0" xmlns="http://www.w3.org/2000/svg"
 width="50.000000pt" height="50.000000pt" viewBox="0 0 50.000000 50.000000"
 preserveAspectRatio="xMidYMid meet">

<g transform="translate(0.000000,50.000000) scale(0.100000,-0.100000)"
fill="#333" stroke="none">
<path d="M312 458 c-17 -17 -15 -53 3 -68 22 -19 64 -4 71 25 4 15 1 32 -6 40
-15 18 -51 20 -68 3z"/>
<path d="M152 371 c-23 -17 -42 -35 -42 -40 0 -22 23 -21 58 1 36 23 72 27 72
7 0 -6 -11 -27 -25 -47 -36 -53 -32 -68 25 -104 46 -28 49 -32 42 -62 -12 -59
-9 -81 13 -81 16 0 22 11 33 63 l14 64 -30 31 -30 32 23 45 c33 61 31 78 -7
95 -72 29 -100 29 -146 -4z"/>
<path d="M331 292 c-9 -16 -9 -27 -1 -43 9 -17 19 -20 58 -17 61 4 66 31 8 38
-27 3 -41 11 -46 25 -7 19 -7 19 -19 -3z"/>
<path d="M163 196 c-5 -9 -27 -16 -58 -18 -42 -3 -50 -6 -50 -23 0 -18 8 -20
62 -23 57 -3 63 -1 79 23 9 14 15 27 13 28 -2 2 -12 8 -21 15 -13 11 -18 10
-25 -2z"/>
</g>
</svg>
